# xmcd
#
# Track frame offsets:
#	150
#	17010
#	41254
#	65688
#	88200
#	109070
#	134732
#	159344
#	186399
#	204621
#
# Disc length: 2917 seconds
#
# Revision: 0
# Processed by: cddbd v1.5.2PL0 Copyright (c) Steve Scherf et al.
# Submitted via: dBpowerAMP V4.0
#
DISCID=8d0b630a
DTITLE=Steve Lindsley - Among the Weeds and Wheat
DYEAR=1900
DGENRE=Christian
TTITLE0=it's time
TTITLE1=emperor's clothes
TTITLE2=prayer
TTITLE3=the angel inside
TTITLE4=will not ago away
TTITLE5=fallen for you
TTITLE6=jade's lullaby
TTITLE7=the invisible man
TTITLE8=carry me
TTITLE9=for pete
EXTD=
EXTT0=
EXTT1=
EXTT2=
EXTT3=
EXTT4=
EXTT5=
EXTT6=
EXTT7=
EXTT8=
EXTT9=
PLAYORDER=
